     <svg
        version="1.0"
        xmlns="http://www.w3.org/2000/svg"
        viewBox="0 0 480.000000 480.000000"
        preserveAspectRatio="xMidYMid meet"
		fill="#000000"
      >
        <g
          transform="translate(0.000000,480.000000) scale(0.100000,-0.100000)"
          fill="#000000"
		  fill-rule="nonzero"
          stroke="none"
        >
          <path
		  fill="#000000"
            d="M0 2400 l0 -2400 2400 0 2400 0 0 2400 0 2400 -2400 0 -2400 0 0
-2400z m2325 804 c66 -25 164 -61 218 -79 53 -19 170 -61 260 -94 89 -34 268
-99 397 -146 129 -47 257 -96 285 -108 90 -40 200 -131 264 -217 107 -144 144
-256 144 -435 0 -182 -44 -312 -153 -450 -75 -94 -138 -143 -253 -200 -141
-68 -290 -90 -433 -64 -69 13 -265 82 -1004 354 -107 40 -233 85 -279 101 -95
32 -134 65 -152 125 -25 82 47 179 131 179 37 0 163 -43 534 -181 103 -39 190
-68 193 -66 2 3 -1 25 -8 48 -7 24 -13 94 -15 154 l-2 110 -108 38 c-60 21
-192 68 -294 106 -102 37 -264 96 -360 131 -195 70 -590 215 -633 232 -35 14
-75 64 -83 105 -14 69 48 155 119 168 36 7 144 -27 482 -153 88 -32 239 -87
335 -122 96 -35 271 -99 389 -142 117 -43 225 -81 240 -84 23 -5 31 2 69 54
24 33 70 81 103 108 32 26 57 50 54 52 -7 7 -189 75 -435 163 -107 38 -214 79
-237 90 -110 53 -111 206 -3 262 47 24 89 18 235 -39z"
          />
          <path
		  		  fill="#000000"

            d="M3093 2560 c-126 -25 -260 -137 -307 -255 -67 -167 -36 -341 82 -467
208 -223 572 -166 707 109 78 161 48 348 -80 482 -108 114 -251 160 -402 131z"
          />
        </g>
      </svg>